<svg width="96" height="96" viewBox="0 0 96 96" fill="none" xmlns="http://www.w3.org/2000/svg">
<rect width="96" height="96" rx="24" fill="#00A74A"/>
<path fill-rule="evenodd" clip-rule="evenodd" d="M67.4786 28.4187V46.3337C70.2645 49.0527 71.9973 52.846 71.9973 57.037C71.9973 65.2872 65.2852 71.9993 57.0349 71.9993C52.844 71.9993 49.0508 70.2665 46.3318 67.4807H25.4043C24.6277 67.4807 23.998 66.8511 23.998 66.0744V28.4187C23.998 27.6421 24.6277 27.0125 25.4043 27.0125H32.2823V25.4062C32.2823 24.6296 32.9119 24 33.6886 24C34.4652 24 35.0948 24.6296 35.0948 25.4062V27.0125H44.3321V25.4062C44.3321 24.6296 44.9617 24 45.7383 24C46.5149 24 47.1446 24.6296 47.1446 25.4062V27.0125H56.3819V25.4062C56.3819 24.6296 57.0115 24 57.7881 24C58.5647 24 59.1943 24.6296 59.1943 25.4062V27.0125H66.0724C66.849 27.0125 67.4786 27.6421 67.4786 28.4187ZM64.6662 36.0499V29.825H26.8105V36.0499H64.6662ZM26.8105 38.8623V64.6681H44.1701C42.8389 62.4324 42.0728 59.8226 42.0728 57.037C42.0728 48.7867 48.7849 42.0747 57.035 42.0747C59.8207 42.0747 62.4304 42.8408 64.6662 44.1721V38.8623H26.8105ZM44.8851 57.037C44.8851 63.7364 50.3356 69.1868 57.0349 69.1868C63.7344 69.1868 69.1848 63.7364 69.1848 57.037C69.1848 50.3376 63.7344 44.8872 57.0349 44.8872C50.3355 44.8872 44.8851 50.3375 44.8851 57.037ZM58.4414 55.631H61.5538C62.3304 55.631 62.96 56.2606 62.96 57.0372C62.96 57.8138 62.3304 58.4434 61.5538 58.4434H57.0351C56.2585 58.4434 55.6289 57.8138 55.6289 57.0372V52.5185C55.6289 51.7419 56.2585 51.1123 57.0351 51.1123C57.8117 51.1123 58.4414 51.7419 58.4414 52.5185V55.631Z" fill="white"/>
</svg>
