<svg width="96" height="96" viewBox="0 0 96 96" fill="none" xmlns="http://www.w3.org/2000/svg">
<rect width="96" height="96" rx="24" fill="#00A74A"/>
<g clip-path="url(#clip0_4563_68140)">
<path fill-rule="evenodd" clip-rule="evenodd" d="M59.3321 49.7836L48.3624 55.2684C47.9401 55.4796 47.4431 55.4796 47.0208 55.2684L36.0498 49.783V59.0662C36.1204 59.1986 36.2261 59.3823 36.3728 59.6024C36.7155 60.1164 37.2792 60.8248 38.1384 61.5408C39.833 62.953 42.7764 64.4786 47.6915 64.4786C52.6066 64.4786 55.5499 62.953 57.2446 61.5408C58.1038 60.8248 58.6675 60.1164 59.0102 59.6024C59.1561 59.3834 59.2615 59.2004 59.3321 59.0682V49.7836ZM20.7374 42.1268L33.0498 48.283V59.4077C33.0498 59.5985 33.0862 59.7876 33.1571 59.9648L34.5498 59.4077C33.1571 59.9648 33.1575 59.9658 33.1579 59.9668L33.1587 59.9689L33.1606 59.9735L33.1652 59.9847L33.1776 60.0142C33.1873 60.037 33.1999 60.066 33.2157 60.1008C33.2473 60.1704 33.2913 60.2633 33.3493 60.3761C33.4653 60.6015 33.6373 60.9074 33.8767 61.2665C34.3553 61.9845 35.1059 62.9188 36.2179 63.8455C38.4657 65.7187 42.0932 67.4786 47.6915 67.4786C51.2031 67.4786 53.9393 66.7861 56.0459 65.8076V70.3536C56.0459 71.182 56.7175 71.8536 57.5459 71.8536H64.1167C64.9452 71.8536 65.6167 71.182 65.6167 70.3536V63.7827C65.6167 63.3849 65.4587 63.0034 65.1774 62.7221L62.3321 59.8768V59.4642C62.3328 59.4454 62.3332 59.4266 62.3332 59.4077V48.2831L74.6458 42.1268C75.154 41.8727 75.475 41.3533 75.475 40.7851C75.475 40.217 75.154 39.6976 74.6458 39.4435L48.3624 26.3018C47.9401 26.0906 47.4431 26.0906 47.0208 26.3018L20.7374 39.4435C20.2292 39.6976 19.9082 40.217 19.9082 40.7851C19.9082 41.3533 20.2292 41.8727 20.7374 42.1268ZM60.8323 45.6794L48.3612 39.4439C47.6203 39.0734 46.7193 39.3738 46.3488 40.1147C45.9783 40.8557 46.2786 41.7567 47.0196 42.1272L57.4782 47.3565L47.6916 52.2498L24.7623 40.7851L47.6916 29.3205L70.6209 40.7851L60.8323 45.6794ZM59.0459 64.404V68.8536H62.6167V64.404L60.8313 62.6186L59.0459 64.404Z" fill="white"/>
</g>
<defs>
<clipPath id="clip0_4563_68140">
<rect width="56" height="56" fill="white" transform="translate(20 20)"/>
</clipPath>
</defs>
</svg>
