<svg width="96" height="96" viewBox="0 0 96 96" fill="none" xmlns="http://www.w3.org/2000/svg">
<rect width="96" height="96" rx="24" fill="#00A74A"/>
<path fill-rule="evenodd" clip-rule="evenodd" d="M45.6979 63.6701C46.2946 64.499 46.8819 65.3149 47.4499 66.1156C47.7115 66.4842 48.2841 66.4842 48.5457 66.1156C49.1138 65.3147 49.7013 64.4987 50.2981 63.6696L50.2982 63.6693C52.5665 60.5184 54.9698 57.1796 56.9636 53.7765C59.4909 49.4628 61.2163 45.2736 61.2163 41.5045C61.2163 34.2935 55.2961 28.405 47.9978 28.405C40.6995 28.405 34.7793 34.2935 34.7793 41.5045C34.7793 45.2736 36.5047 49.4628 39.032 53.7765C41.0257 57.1796 43.4291 60.5183 45.6973 63.6693L45.6973 63.6693L45.6979 63.6701ZM50.8395 67.7429C49.4569 69.6917 46.5387 69.6917 45.1561 67.7429C44.612 66.9759 44.0411 66.1831 43.4551 65.3691C41.1791 62.2081 38.6731 58.7277 36.6053 55.1982C34.0138 50.7749 31.9668 46.0469 31.9668 41.5045C31.9668 32.7186 39.1679 25.5925 47.9978 25.5925C56.8277 25.5925 64.0288 32.7186 64.0288 41.5045C64.0288 46.0469 61.9818 50.7749 59.3903 55.1982C57.3225 58.7276 54.8166 62.208 52.5406 65.3691L52.5406 65.3691C51.9545 66.1831 51.3836 66.9759 50.8395 67.7429ZM47.9979 49.4053C43.5372 49.4053 39.8418 45.8687 39.8418 41.4367C39.8418 37.0046 43.5372 33.4681 47.9979 33.4681C52.4587 33.4681 56.154 37.0046 56.154 41.4367C56.154 45.8687 52.4587 49.4053 47.9979 49.4053ZM42.6543 41.4367C42.6543 44.2413 45.0152 46.5928 47.9979 46.5928C50.9806 46.5928 53.3416 44.2413 53.3416 41.4367C53.3416 38.6321 50.9806 36.2805 47.9979 36.2805C45.0152 36.2805 42.6543 38.6321 42.6543 41.4367Z" fill="white"/>
</svg>
