<svg width="96" height="96" viewBox="0 0 96 96" fill="none" xmlns="http://www.w3.org/2000/svg">
<rect width="96" height="96" rx="24" fill="#00A74A"/>
<path fill-rule="evenodd" clip-rule="evenodd" d="M70.1904 43.325L70.1906 43.3254C71.0361 44.6663 71.9942 46.1861 71.9942 47.9997C71.9942 49.8133 71.036 51.3331 70.1904 52.6739C69.7071 53.4404 69.2506 54.1645 69.0327 54.8354C68.7989 55.5559 68.7364 56.4412 68.6703 57.3784L68.6703 57.3786C68.5606 58.9354 68.4361 60.6998 67.4111 62.1084C66.3764 63.5301 64.7295 64.1932 63.2764 64.7783L63.2762 64.7784L63.2744 64.7791C62.4104 65.127 61.5943 65.4556 60.9944 65.8922C60.407 66.3198 59.8501 66.9882 59.2606 67.6959C58.2516 68.9071 57.1079 70.2798 55.4123 70.8303C54.8539 71.0117 54.2954 71.0833 53.7392 71.0833C52.6736 71.0833 51.6162 70.8204 50.5818 70.5633L50.5806 70.563C49.6534 70.3324 48.7775 70.1147 47.9947 70.1147C47.2123 70.1147 46.3372 70.3322 45.4107 70.5625L45.4087 70.563C43.8342 70.9545 42.2061 71.3592 40.577 70.8303C38.8816 70.2798 37.7378 68.907 36.7288 67.6959C36.1393 66.9882 35.5824 66.3198 34.995 65.8922C34.3946 65.4554 33.578 65.1265 32.7132 64.7784L32.713 64.7783C31.2599 64.1932 29.613 63.5301 28.5783 62.1085C27.5532 60.6998 27.4287 58.9354 27.319 57.3787L27.319 57.3784C27.2529 56.4412 27.1904 55.5559 26.9566 54.8353C26.7387 54.1645 26.2822 53.4405 25.7989 52.674C24.9534 51.3332 23.9951 49.8133 23.9951 47.9997C23.9951 46.1861 24.9533 44.6663 25.799 43.3254C26.2823 42.5589 26.7389 41.8349 26.9567 41.1639C27.1906 40.4435 27.2531 39.5581 27.3191 38.6209L27.3192 38.6206C27.4289 37.0639 27.5534 35.2995 28.5784 33.8909C29.6131 32.4692 31.26 31.8061 32.7131 31.2211L32.7133 31.221L32.7151 31.2202C33.5791 30.8723 34.3951 30.5437 34.9951 30.1071C35.5825 29.6796 36.1394 29.0111 36.7289 28.3034C37.7379 27.0922 38.8816 25.7195 40.5772 25.169C42.2062 24.64 43.8344 25.0448 45.4089 25.4363L45.4109 25.4368C46.3374 25.6671 47.2125 25.8847 47.9948 25.8847C48.7771 25.8847 49.6523 25.6671 50.5788 25.4368L50.5808 25.4363C52.1553 25.0448 53.7833 24.6401 55.4125 25.169C57.1079 25.7195 58.2517 27.0922 59.2607 28.3034C59.8502 29.0111 60.4071 29.6796 60.9945 30.1071C61.5949 30.5439 62.4115 30.8728 63.2763 31.221L63.2765 31.2211C64.7296 31.8061 66.3765 32.4692 67.4112 33.8909C68.4363 35.2995 68.5607 37.064 68.6705 38.6207L68.6705 38.6209C68.7366 39.5581 68.7991 40.4434 69.0329 41.164C69.2508 41.8348 69.7072 42.5587 70.1904 43.325ZM67.7991 51.1666L67.7994 51.1662L67.7996 51.1659C68.503 50.0502 69.1675 48.9964 69.1674 47.9997C69.1674 47.003 68.5031 45.9493 67.7997 44.8336L67.7994 44.8331L67.7992 44.8328C67.2446 43.9532 66.6711 43.0438 66.3443 42.0371C66.0035 40.9874 65.9257 39.8854 65.8506 38.8196L65.8506 38.8193C65.7595 37.5274 65.6734 36.3072 65.1255 35.5543C64.5682 34.7885 63.4278 34.3293 62.2205 33.8433L62.2202 33.8431C61.234 33.446 60.2143 33.0354 59.3311 32.3926C58.4599 31.7587 57.7629 30.922 57.0889 30.113L57.0888 30.1129C56.2505 29.1066 55.4586 28.1561 54.5394 27.8576C53.6806 27.5789 52.5072 27.8704 51.2648 28.1791L51.2629 28.1796C50.2113 28.4412 49.1239 28.7115 47.9948 28.7115C46.866 28.7115 45.7788 28.4412 44.7273 28.1798L44.7268 28.1796L44.7258 28.1794C43.483 27.8705 42.3094 27.5788 41.4501 27.8576C40.5309 28.1561 39.7391 29.1066 38.9008 30.1129C38.2268 30.922 37.5297 31.7585 36.6585 32.3926C35.7756 33.0352 34.7563 33.4457 33.7704 33.8427L33.769 33.8433C32.5618 34.3293 31.4214 34.7885 30.864 35.5544C30.3161 36.3072 30.23 37.5274 30.1389 38.8193L30.1389 38.8196L30.1388 38.8208C30.0636 39.8862 29.9859 40.9877 29.6452 42.037C29.3184 43.0438 28.7449 43.9532 28.1904 44.8327L28.1901 44.8331C27.4865 45.949 26.822 47.0029 26.822 47.9997C26.822 48.9966 27.4865 50.0505 28.1901 51.1663L28.1904 51.1667C28.7449 52.0462 29.3184 52.9557 29.6452 53.9623C29.986 55.012 30.0638 56.1139 30.1389 57.1797C30.2299 58.4717 30.316 59.6921 30.864 60.445C31.4213 61.2108 32.5617 61.67 33.769 62.156L33.7694 62.1562C34.7555 62.5533 35.7752 62.964 36.6584 63.6067C37.5296 64.2407 38.2266 65.0773 38.9006 65.8863L38.9007 65.8864C39.739 66.8928 40.5309 67.8433 41.4501 68.1417C42.3094 68.4208 43.4835 68.1288 44.7263 67.8198L44.7267 67.8197C45.7783 67.5581 46.8657 67.2878 47.9947 67.2878C49.1236 67.2878 50.2108 67.5581 51.2623 67.8196L51.2628 67.8197L51.2633 67.8198C52.5062 68.1288 53.6802 68.4207 54.5393 68.1417C55.4586 67.8433 56.2504 66.8928 57.0887 65.8864L57.0893 65.8857C57.7631 65.077 58.46 64.2406 59.331 63.6067C60.2139 62.9641 61.2332 62.5536 62.2191 62.1566L62.2204 62.156C63.4277 61.67 64.5682 61.2108 65.1255 60.4449C65.6734 59.6921 65.7595 58.4719 65.8506 57.18L65.8506 57.1797L65.8507 57.1786C65.9259 56.1131 66.0036 55.0116 66.3443 53.9623C66.6711 52.9556 67.2446 52.0461 67.7991 51.1666ZM44.8 37C43.8059 37 43 37.8059 43 38.8V47.5H41C40.1716 47.5 39.5 48.1716 39.5 49C39.5 49.8284 40.1716 50.5 41 50.5H43V52.5H41C40.1716 52.5 39.5 53.1716 39.5 54C39.5 54.8284 40.1716 55.5 41 55.5H43V58C43 58.8284 43.6716 59.5 44.5 59.5C45.3284 59.5 46 58.8284 46 58V55.5H51.5C52.3284 55.5 53 54.8284 53 54C53 53.1716 52.3284 52.5 51.5 52.5H46V50.5H49.75C53.4779 50.5 56.5 47.4779 56.5 43.75C56.5 40.0221 53.4779 37 49.75 37H44.8ZM49.75 47.5H46V40H49.75C51.8211 40 53.5 41.6789 53.5 43.75C53.5 45.8211 51.8211 47.5 49.75 47.5Z" fill="white"/>
</svg>
