<svg width="96" height="96" viewBox="0 0 96 96" fill="none" xmlns="http://www.w3.org/2000/svg">
<rect width="96" height="96" rx="24" fill="#00A74A"/>
<path fill-rule="evenodd" clip-rule="evenodd" d="M47.9929 60.6542C47.234 60.6542 46.486 60.608 45.7513 60.5182L41.0602 71.159C40.8345 71.6708 40.327 72.0002 39.7677 71.998C39.2083 71.9957 38.7035 71.6621 38.4821 71.1484L35.9653 65.3103L29.9453 67.3544C29.417 67.5337 28.8327 67.3839 28.456 66.9724C28.0792 66.5609 27.9814 65.9656 28.2066 65.4552L33.4831 53.495C31.1179 50.4138 29.7119 46.5577 29.7119 42.3732C29.7119 32.2871 37.8865 23.9985 47.9929 23.9985C58.0993 23.9985 66.2739 32.2871 66.2739 42.3732C66.2739 46.5581 64.8677 50.4145 62.5021 53.4958L67.7782 65.4552C68.0034 65.9656 67.9056 66.5609 67.5288 66.9724C67.1521 67.3839 66.5678 67.5337 66.0395 67.3544L60.0195 65.3103L57.5027 71.1484C57.2813 71.6621 56.7765 71.9957 56.2171 71.998C55.6578 72.0002 55.1503 71.6708 54.9246 71.159L50.2335 60.5183C49.4992 60.608 48.7515 60.6542 47.9929 60.6542ZM35.5536 55.7695C37.6238 57.6927 40.1404 59.1418 42.9307 59.9443L39.7879 67.073L38.034 63.0046C37.7437 62.3312 36.9848 61.9939 36.2905 62.2297L32.0716 63.6622L35.5536 55.7695ZM53.0542 59.9445L56.1969 67.073L57.9508 63.0046C58.2411 62.3312 59 61.9939 59.6943 62.2297L63.9132 63.6622L60.4315 55.7702C58.3612 57.6932 55.8446 59.1422 53.0542 59.9445ZM59.7825 52.3877C56.9452 55.7247 52.7163 57.8418 47.9929 57.8418C39.4499 57.8418 32.5244 50.9162 32.5244 42.3732C32.5244 33.8201 39.46 26.811 47.9929 26.811C56.5258 26.811 63.4614 33.8201 63.4614 42.3732C63.4614 46.176 62.0892 49.6583 59.8129 52.3519C59.8025 52.3637 59.7924 52.3756 59.7825 52.3877ZM43.6872 50.4439C43.2134 50.6929 42.6393 50.6514 42.2062 50.3368C41.7732 50.0222 41.5563 49.489 41.6468 48.9614L42.4691 44.1677L38.9862 40.7728C38.6029 40.3992 38.465 39.8403 38.6304 39.3313C38.7958 38.8222 39.2359 38.4512 39.7656 38.3742L44.5787 37.6748L46.7312 33.3134C46.9681 32.8334 47.4569 32.5295 47.9922 32.5295C48.5275 32.5295 49.0163 32.8334 49.2532 33.3134L51.4057 37.6748L56.2188 38.3742C56.7485 38.4512 57.1886 38.8222 57.354 39.3312C57.5194 39.8403 57.3815 40.3991 56.9982 40.7728L53.5154 44.1677L54.3375 48.9615C54.428 49.489 54.2111 50.0222 53.778 50.3368C53.345 50.6514 52.7709 50.6929 52.2971 50.4438L47.9922 48.1806L43.6872 50.4439ZM45.366 43.9145L44.9005 46.6285L47.3378 45.3471C47.7475 45.1317 48.2369 45.1318 48.6466 45.3471L51.0839 46.6285L50.6184 43.9145C50.5402 43.4583 50.6914 42.9929 51.0229 42.6698L52.9947 40.7477L50.2696 40.3517C49.8116 40.2852 49.4157 39.9975 49.2108 39.5825L47.9922 37.1132L46.7736 39.5825C46.5687 39.9975 46.1728 40.2852 45.7147 40.3517L42.9897 40.7477L44.9616 42.6698C45.293 42.9929 45.4443 43.4584 45.366 43.9145Z" fill="white"/>
</svg>
