<svg width="96" height="96" viewBox="0 0 96 96" fill="none" xmlns="http://www.w3.org/2000/svg">
<rect width="96" height="96" rx="24" fill="#00A74A"/>
<path d="M70.6555 46.7744C71.8718 45.5893 72.3011 43.85 71.7761 42.236C71.2521 40.6214 69.8825 39.4667 68.2019 39.2225L57.8251 37.7147C57.2984 37.6378 56.8432 37.3072 56.6077 36.8302L51.9671 27.4264C51.2156 25.9044 49.6942 24.959 47.9966 24.959C46.299 24.959 44.7777 25.9044 44.0262 27.4264C44.0262 27.4265 39.3855 36.8301 39.3855 36.8301C39.15 37.3073 38.6949 37.6379 38.169 37.7146L27.7916 39.2224C26.1108 39.4667 24.7413 40.6214 24.2175 42.2352C23.6922 43.85 24.1215 45.5894 25.3375 46.7741L32.8466 54.0943C33.2275 54.4655 33.4013 55.0001 33.3116 55.5239L31.5386 65.8601C31.2521 67.5335 31.927 69.1926 33.2999 70.1899C34.6732 71.1877 36.46 71.317 37.9634 70.5273L47.2447 65.6475C47.7155 65.4001 48.2777 65.4002 48.748 65.6473L58.0301 70.5273C59.5334 71.3171 61.3203 71.1877 62.6935 70.1899C64.0663 69.1926 64.7413 67.5335 64.4548 65.8601L62.6818 55.5244C62.5921 55.0001 62.7658 54.4655 63.1469 54.0941L70.6555 46.7744ZM59.9096 55.999L61.6829 66.3356C61.7889 66.9547 61.5488 67.5453 61.0405 67.9146C60.7583 68.1196 60.4314 68.2279 60.095 68.2279C59.9475 68.2279 59.6649 68.2092 59.338 68.0375L50.0568 63.1579C49.4233 62.8251 48.7113 62.6496 47.9968 62.6496C47.282 62.6496 46.5695 62.8253 45.9367 63.1579L36.6545 68.038C36.017 68.373 35.3789 68.2241 34.9532 67.9148C34.4447 67.5454 34.2046 66.9548 34.3107 66.3347L36.0836 55.9995C36.3296 54.562 35.8532 53.0972 34.8095 52.0802L27.3008 44.7603C26.8502 44.3212 26.6976 43.7028 26.892 43.1052C27.0864 42.5066 27.5737 42.0961 28.1962 42.0057L38.5732 40.4979C40.0167 40.2873 41.2626 39.3817 41.9076 38.075L46.5481 28.6716C46.8264 28.108 47.3679 27.7715 47.9967 27.7715C48.6255 27.7715 49.1671 28.108 49.4453 28.6716L54.0858 38.0749C54.731 39.3818 55.9771 40.2874 57.4192 40.4978C59.7197 40.8318 64.1258 41.4716 67.7971 42.0057C68.4198 42.0961 68.9071 42.5068 69.1011 43.1043C69.2959 43.7031 69.1431 44.3213 68.6929 44.76L61.1838 52.0803C60.1401 53.0972 59.6637 54.5623 59.9096 55.999Z" fill="white"/>
</svg>
