<svg xmlns="http://www.w3.org/2000/svg" version="1.1" xmlns:xlink="http://www.w3.org/1999/xlink" xmlns:svgjs="http://svgjs.com/svgjs" width="512" height="512" x="0" y="0" viewBox="0 0 60 60" style="enable-background:new 0 0 512 512" xml:space="preserve" class=""><g><g xmlns="http://www.w3.org/2000/svg" id="Page-1" fill="none" fill-rule="evenodd"><g id="007---Apron" fill="rgb(0,0,0)" fill-rule="nonzero" transform="translate(0 -1)"><path id="Shape" d="m25 19h10c1.1045695 0 2-.8954305 2-2v-5c-.0019177-2.01611573-.872039-3.93374162-2.388016-5.2628541-1.5159771-1.32911247-3.530937-1.94094278-5.529984-1.6791459-3.5325273.5241311-6.1321933 3.58115371-6.082 7.152v4.79c0 1.1045695.8954305 2 2 2zm0-6.79c-.0519606-2.5654889 1.8014161-4.77398568 4.337-5.168.2222068-.02829814.4459988-.04232688.67-.042 1.2133297-.00357408 2.3855221.43960222 3.293 1.245 1.0802301.94900102 1.6996181 2.3171196 1.7 3.755v5h-10z" fill="#006241" data-original="#000000" style=""></path><path id="Shape" d="m0 38c-.01885326 1.49241 1.02843488 2.7863908 2.492 3.079.87146885.1479623 1.7638811-.0952744 2.43974222-.6649783s1.06660991-1.4080827 1.06825778-2.2920217v-14.129c.02203513-.3732505.21265172-.7162132.518-.932.20142635-.0878957.42994372-.0900617.633-.006.22419741.0896181.39855403.2719995.478.5 1.57092758 4.3776674 2.3730771 8.9940021 2.371 13.645v16.8c.0044086 3.8641657 3.1358343 6.9955914 7 7h26c3.8641657-.0044086 6.9955914-3.1358343 7-7v-16.8c-.001661-4.6492466.8001366-9.2638116 2.37-13.64.0773162-.2269309.2490877-.4092786.471-.5.220506-.0958022.472406-.0873565.686.023.2901207.1403789.4740248.4347032.473.757v14.18c-.0195643 1.4995431 1.045772 2.794343 2.521 3.064.868146.1404154 1.7541833-.1071651 2.4237934-.6772672.6696101-.570102 1.0553494-1.4053046 1.0552066-2.2847328v-14.282c-.0039387-2.7833877-1.6917135-5.2876564-4.2701591-6.3359317-2.5784455-1.0482752-5.5348429-.4321095-7.4798409 1.5589317-.7127197.7452848-1.253109 1.6379684-1.583 2.615l-1.137 3.161c-5.039-5.179-4.551-10.46-4.55-10.481.0146331-.1187547.0213147-.2383544.02-.358v-1.64c.0816751-5.87857377-4.3863498-10.82424071-10.243-11.338-3.0450068-.21726818-6.0418128.85081769-8.263 2.945-2.2226196 2.08125043-3.4869582 4.98807114-3.494 8.033v2c-.0016525.1045734.0036928.2091402.016.313.005.053.491 5.349-4.554 10.525l-1.129-3.16c-.329891-.9770316-.8702803-1.8697152-1.583-2.615-1.94537004-1.9899986-4.90122582-2.6055003-7.47922146-1.5574079-2.57799564 1.0480923-4.26584584 3.5515075-4.27077854 6.3344079zm4.681-18.487c1.88883169-.9439514 4.17125962-.5582231 5.645.954.5076744.5384423.8913213 1.1814945 1.124 1.884l1.128 3.159c.2339217.6508412.786459 1.1353904 1.462269 1.2823409.67581.1469506 1.3796671-.0644036 1.862731-.5593409 5.684-5.841 5.128-11.873 5.1-12.127 0-.011 0-.094 0-.106v-2c.0061299-2.49135693 1.0410659-4.86953837 2.86-6.572 1.8173177-1.71505221 4.2706312-2.58929227 6.763-2.41 4.8067401.44120428 8.4591381 4.51580449 8.374 9.342v1.64.112c-.027.253-.6 6.26 5.1 12.121.4827127.4950353 1.1863381.7065836 1.8620101.5598222.675672-.1467615 1.2281358-.6311427 1.4619899-1.2818222l1.129-3.16c.2326787-.7025055.6163256-1.3455577 1.124-1.884 1.4734297-1.5128156 3.756267-1.8986131 5.645-.954 1.6466626.8115526 2.6862232 2.4912311 2.678 4.327v14.282c.000164.2950426-.129971.5750992-.3555824.7652298-.2256114.1901307-.5236696.2709275-.8144176.2207702-.501353-.1173584-.8492951-.573456-.83-1.088v-14.18c.003043-1.3824331-.9904593-2.5659332-2.352519-2.8024156-1.3620597-.2364825-2.6963536.5428629-3.159481 1.8454156-1.6482546 4.5932796-2.4899836 9.436943-2.488 14.317v16.8c-.0033061 2.7600532-2.2399468 4.9966939-5 5h-26c-2.7600532-.0033061-4.9966939-2.2399468-5-5v-16.8c.001868-4.8811108-.8402006-9.7257964-2.489-14.32-.26137167-.7366622-.81559336-1.3325382-1.53141754-1.6465161-.71582417-.3139779-1.52958864-.3181339-2.24858246-.0114839-1.04335661.5343157-1.70844973 1.5990026-1.731 2.771v14.129c-.00084509.2944932-.13145566.5736413-.357.763-.2261144.1933765-.52733355.2745587-.82.221-.49998286-.1297094-.84236861-.5898293-.823-1.106v-14.16c-.00766226-1.8364434 1.03317067-3.5162957 2.681-4.327z" fill="#006241" data-original="#000000" style=""></path><path id="Shape" d="m43 41h-26c-1.1045695 0-2 .8954305-2 2v6c.0044086 3.8641657 3.1358343 6.9955914 7 7h16c3.8641657-.0044086 6.9955914-3.1358343 7-7v-6c0-1.1045695-.8954305-2-2-2zm0 8c-.0033061 2.7600532-2.2399468 4.9966939-5 5h-16c-2.7600532-.0033061-4.9966939-2.2399468-5-5v-6h26z" fill="#006241" data-original="#000000" style=""></path><path id="Shape" d="m25.1 25.1c-3.48 3.468-4.111 8.5-1.406 11.214 1.1624096 1.1165101 2.7238219 1.7205443 4.335 1.677 2.6066384-.0912264 5.0735609-1.2010004 6.871-3.091 3.479-3.468 4.11-8.5 1.405-11.213s-7.741-2.069-11.205 1.413zm1.414 1.414c1.4211769-1.5147716 3.3753731-2.4180046 5.45-2.519 1.0204486-.0249715 2.0135158.3316056 2.785 1-.370871.1528808-.761931.2512353-1.161.292-2.4409111.1996588-4.377941 2.1379586-4.576 4.579-.0720724 1.56026-1.3198159 2.8093032-2.88 2.883-.6773168.068103-1.3366597.2585196-1.946.562-.598-2.026.247-4.729 2.326-6.801zm6.978 6.978c-2.627 2.636-6.278 3.292-8.242 1.526.372741-.1560643.7661874-.2571208 1.168-.3 2.4409111-.1996588 4.377941-2.1379586 4.576-4.579.0720724-1.56026 1.3198159-2.8093032 2.88-2.883.6773168-.068103 1.3366597-.2585196 1.946-.562.593 2.021-.253 4.723-2.33 6.794z" fill="#006241" data-original="#000000" style=""></path></g></g></g></svg>
