<svg xmlns="http://www.w3.org/2000/svg" version="1.1" xmlns:xlink="http://www.w3.org/1999/xlink" xmlns:svgjs="http://svgjs.com/svgjs" width="512" height="512" x="0" y="0" viewBox="0 0 54 60" style="enable-background:new 0 0 512 512" xml:space="preserve" class=""><g><g xmlns="http://www.w3.org/2000/svg" id="Page-1" fill="none" fill-rule="evenodd"><g id="048---Bean-Sack" fill="rgb(0,0,0)" fill-rule="nonzero"><path id="Shape" d="m48.308 10.37c1.259-1.338 4.742-5.277 4.737-7.932.0183369-.65412611-.2300024-1.28760784-.688-1.755-1.619-1.621-5 .088-7.806 2.362-4.063-1.913-10.546-3.045-17.551-3.045s-13.488 1.132-17.551 3.045c-2.804-2.273-6.185-3.983-7.803-2.365-.45745258.46563659-.70550969 1.09751422-.687 1.75 0 2.666 3.477 6.605 4.734 7.942-3.617 10.713-3.617 28.651 0 39.258-1.261 1.337-4.743 5.27-4.738 7.931-.01872673.6544899.22965011 1.2884285.688 1.756 1.617 1.619 5-.089 7.806-2.362 4.063 1.913 10.551 3.045 17.551 3.045s13.488-1.132 17.551-3.045c2.8 2.272 6.184 3.98 7.8 2.364.4568332-.4655593.7045007-1.0970032.686-1.749.005-2.669-3.474-6.6-4.732-7.94 3.5-10.287 3.625-27.763.216-38.6-.066-.223-.139-.443-.213-.66zm-2.087 39.168c-.1331889.3655259-.0422982.7751193.233 1.05 1.852 1.849 4.59 5.345 4.587 6.979 0 .24-.069.308-.095.333-.2.206-2.217 0-5.6-2.893-.3104639-.2653337-.7510778-.3152145-1.113-.126-3.739 1.954-10.178 3.119-17.233 3.119s-13.494-1.165-17.226-3.116c-.3619222-.1892145-.80253609-.1393337-1.113.126-3.386 2.894-5.395 3.1-5.607 2.89-.027-.026-.1-.1-.1-.342 0-1.625 2.738-5.12 4.592-6.97.27494765-.2751001.36544202-.6846652.232-1.05-3.694-10.168-3.693-28.795 0-39.08.13079945-.3642657.03965467-.77130109-.234-1.045-1.85-1.851-4.588-5.35-4.585-6.979 0-.241.069-.309.1-.337.2-.206 2.217 0 5.6 2.893.31046391.26533367.7510778.31521449 1.113.126 3.734-1.951 10.173-3.116 17.228-3.116s13.494 1.165 17.226 3.116c.3619222.18921449.8025361.13933367 1.113-.126 3.387-2.894 5.4-3.1 5.607-2.89.027.026.1.1.1.341 0 1.622-2.738 5.12-4.592 6.972-.2732574.27350573-.3643738.6800252-.234 1.044.135.377.27.765.4 1.173 3.304 10.514 3.118 28.227-.399 37.908z" fill="#006241" data-original="#000000" style="" class=""></path><path id="Shape" d="m11.031 10.941c.5191367.1875381 1.0920467-.0810135 1.28-.6l.676-1.886c3.5859143-.99262599 7.2923358-1.48230576 11.013-1.455.5522847 0 1-.44771525 1-1s-.4477153-1-1-1c-4.0848708-.03395485-8.1525909.53208257-12.073 1.68-.3026799.09177153-.5441014.32132598-.651.619l-.848 2.363c-.1865902.519696.0833553 1.0922669.603 1.279z" fill="#006241" data-original="#000000" style="" class=""></path><path id="Shape" d="m42.372 51.339c-2.46 1.286-7.79 2.661-15.372 2.661s-12.912-1.375-15.372-2.661c-.3173977-.1763038-.7054196-.166721-1.0137274.0250356-.3083079.1917565-.4884584.5355567-.4706527.898196s.2307699.6871375.5563801.8477684c2.671 1.398 8.356 2.89 16.3 2.89s13.629-1.492 16.3-2.89c.3256102-.1606309.5385744-.4851291.5563801-.8477684s-.1623448-.7064395-.4706527-.898196c-.3083078-.1917566-.6963297-.2013394-1.0137274-.0250356z" fill="#006241" data-original="#000000" style="" class=""></path><path id="Shape" d="m23.062 42.979c2.0755417.0573078 4.0878596-.7175192 5.589-2.152 1.4522232-1.4956761 2.2359266-3.5162743 2.172-5.6-.1278359-3.4006006-1.5866327-6.6148377-4.062-8.95-4.528-4.529-11.071-5.377-14.589-1.883-1.4537427 1.4971403-2.23756701 3.5202153-2.172 5.606.1281936 3.4006403 1.5877766 6.614668 4.064 8.949 2.3586689 2.4658444 5.5877505 3.9120768 8.998 4.03zm-5.289-18.76c2.8802119.1320418 5.5965404 1.3776233 7.576 3.474 2.0869852 1.9700694 3.3317152 4.6705674 3.474 7.537.0090789.7863983-.1240614 1.5679623-.393 2.307-.8735208-.5177261-1.8530953-.8305745-2.865-.915-2.2462838-.1168116-4.042789-1.9090034-4.165-4.155-.2492374-3.1254226-2.7341146-5.6056353-5.86-5.849-.7376559-.0496856-1.4542152-.2672186-2.095-.636.05-.054.086-.119.138-.171 1.1272061-1.0702195 2.6365227-1.6436878 4.19-1.592zm-5.773 5.772c-.0081786-.7867392.1252814-1.5685301.394-2.308.873308.5173915 1.8524797.8302204 2.864.915 2.2455326.1172584 4.0413427 1.9087558 4.164 4.154.250583 3.1250051 2.7354461 5.6043567 5.861 5.848.7376459.0489943 1.4542852.2662095 2.095.635-.05.054-.086.12-.139.172-2.734 2.715-8.011 1.871-11.762-1.882-2.087392-1.9688412-3.3331638-4.6681926-3.477-7.534z" fill="#006241" data-original="#000000" style="" class=""></path><path id="Shape" d="m35.4 16.2c-.590787-.1328515-1.1944599-.1999262-1.8-.2-3.359.011-6.518 2.12-8.451 5.644-.2506841.4826033-.0697426 1.0770702.4073066 1.338169s1.075303.0931013 1.3466934-.378169c1.6-2.917 4.044-4.595 6.7-4.6.16 0 .322.007.486.021-.2023758.9483875-.6456135 1.8286637-1.287 2.556-2.3533884 2.7381444-2.3533884 6.7848556 0 9.523.8909333.9736435 1.378829 2.2493211 1.365 3.569.0187215 1.3149257-.4689336 2.5866957-1.362 3.552-1.1126886 1.2679567-1.7398341 2.8893228-1.77 4.576-.0090583.388091.2073055.7463582.555.919.0683001.0336684.1400539.0598217.214.078.5896065.1403827 1.193922.2095433 1.8.206 5.741-.011 10.4-6.067 10.391-13.5.016-6.59-3.602-12.184-8.595-13.304zm-1.793 24.8c-.165 0-.325-.006-.482-.019.2006409-.9498893.6440588-1.8315572 1.287-2.559 2.3535365-2.7384686 2.3535365-6.7855314 0-9.524-.8912164-.973069-1.3791765-2.2485573-1.365-3.568-.0187215-1.3149257.4689336-2.5866957 1.362-3.552.8039583-.9424433 1.3637382-2.0681847 1.63-3.278 3.473 1.454 5.969 5.942 5.961 11 .009 6.333-3.757 11.491-8.393 11.5z" fill="#006241" data-original="#000000" style="" class=""></path><circle id="Oval" cx="28" cy="6" r="1" fill="#006241" data-original="#000000" style="" class=""></circle></g></g></g></svg>
