<svg xmlns="http://www.w3.org/2000/svg" version="1.1" xmlns:xlink="http://www.w3.org/1999/xlink" xmlns:svgjs="http://svgjs.com/svgjs" width="512" height="512" x="0" y="0" viewBox="0 0 60 60" style="enable-background:new 0 0 512 512" xml:space="preserve" class=""><g><g xmlns="http://www.w3.org/2000/svg" id="Page-1" fill="none" fill-rule="evenodd"><g id="015---Cafe-Location" fill="rgb(0,0,0)" fill-rule="nonzero"><path id="Shape" d="m26.978 58h-18.978c-.55228475 0-1 .4477153-1 1s.44771525 1 1 1h44c.5522847 0 1-.4477153 1-1s-.4477153-1-1-1h-18.978c5.852-4.643 19.978-17.741 19.978-36 0-12.131-10.318-22-23-22s-23 9.869-23 22c0 18.259 14.126 31.357 19.978 36zm-17.978-36c0-11.028 9.42-20 21-20s21 8.972 21 20c0 19.5-17.615 33.3-21 35.773-3.385-2.473-21-16.273-21-35.773z" fill="#006241" data-original="#000000" style=""></path><path id="Shape" d="m4 60c.55228475 0 1-.4477153 1-1s-.44771525-1-1-1h-3c-.55228475 0-1 .4477153-1 1s.44771525 1 1 1z" fill="#006241" data-original="#000000" style=""></path><path id="Shape" d="m59 60c.5522847 0 1-.4477153 1-1s-.4477153-1-1-1h-3c-.5522847 0-1 .4477153-1 1s.4477153 1 1 1z" fill="#006241" data-original="#000000" style=""></path><path id="Shape" d="m34 41c3.49025-.0058776 6.4436971-2.5802293 6.926-6.037 4.023-.315 5.037-2.718 5.714-5.176.2455027-.9030566.0555256-1.8689495-.5136957-2.6117617s-1.4524742-1.1774438-2.3883043-1.1752383h-2.738c0-1.1045695-.8954305-2-2-2h-18c-1.1045695 0-2 .8954305-2 2v8c.0044086 3.8641657 3.1358343 6.9955914 7 7zm9.738-13c.3145353.0009373.610529.1489341.8.4.1876665.2425597.2502701.559282.169.855-.623 2.265-1.246 3.462-3.712 3.7v-4.955zm-22.738 6v-3h3c.5522847 0 1-.4477153 1-1s-.4477153-1-1-1h-3v-3h18v3h-11c-.5522847 0-1 .4477153-1 1s.4477153 1 1 1h11v3c-.0033061 2.7600532-2.2399468 4.9966939-5 5h-8c-2.7600532-.0033061-4.9966939-2.2399468-5-5z" fill="#006241" data-original="#000000" style=""></path><path id="Shape" d="m23.324 17.429c-.8165367.6049822-1.3057349 1.5549281-1.324 2.571 0 .5522847.4477153 1 1 1s1-.4477153 1-1c0-.459.2-.657.676-1.1.8309154-.5926703 1.3241726-1.5503734 1.3241726-2.571s-.4932572-1.9783297-1.3241726-2.571c-.481-.441-.676-.638-.676-1.1s.2-.654.675-1.094c.8152257-.6030797 1.3046459-1.5501539 1.325-2.564 0-.55228475-.4477153-1-1-1s-1 .44771525-1 1c0 .458-.2.654-.675 1.094-.8309032.5922319-1.3242151 1.5496379-1.3242151 2.57s.4933119 1.9777681 1.3242151 2.57c.481.441.676.639.676 1.1s-.196.654-.677 1.095z" fill="#006241" data-original="#000000" style=""></path><path id="Shape" d="m29.324 17.429c-.8165367.6049822-1.3057349 1.5549281-1.324 2.571 0 .5522847.4477153 1 1 1s1-.4477153 1-1c0-.459.2-.657.676-1.1.8309154-.5926703 1.3241726-1.5503734 1.3241726-2.571s-.4932572-1.9783297-1.3241726-2.571c-.481-.441-.676-.638-.676-1.1s.2-.654.675-1.094c.8152257-.6030797 1.3046459-1.5501539 1.325-2.564 0-.55228475-.4477153-1-1-1s-1 .44771525-1 1c0 .458-.2.654-.675 1.094-.8309032.5922319-1.3242151 1.5496379-1.3242151 2.57s.4933119 1.9777681 1.3242151 2.57c.481.441.676.639.676 1.1s-.196.654-.677 1.095z" fill="#006241" data-original="#000000" style=""></path><path id="Shape" d="m35.324 17.429c-.8165367.6049822-1.3057349 1.5549281-1.324 2.571 0 .5522847.4477153 1 1 1s1-.4477153 1-1c0-.459.2-.657.676-1.1.8309154-.5926703 1.3241726-1.5503734 1.3241726-2.571s-.4932572-1.9783297-1.3241726-2.571c-.481-.441-.676-.638-.676-1.1s.2-.654.675-1.094c.8152257-.6030797 1.3046459-1.5501539 1.325-2.564 0-.55228475-.4477153-1-1-1s-1 .44771525-1 1c0 .458-.2.654-.675 1.094-.8309032.5922319-1.3242151 1.5496379-1.3242151 2.57s.4933119 1.9777681 1.3242151 2.57c.481.441.676.639.676 1.1s-.196.654-.677 1.095z" fill="#006241" data-original="#000000" style=""></path><path id="Shape" d="m29.35 52.15c.374224.3200877.925776.3200877 1.3 0 2.3264829-1.997393 4.4961914-4.1704446 6.49-6.5.2537295-.2966426.3116552-.7138095.1483471-1.0683599-.163308-.3545504-.5179941-.5816658-.9083471-.5816401h-12.76c-.390353-.0000257-.7450391.2270897-.9083471.5816401-.1633081.3545504-.1053824.7717173.1483471 1.0683599 1.9938086 2.3295554 4.1635171 4.502607 6.49 6.5zm4.8-6.15c-1.3144288 1.4236013-2.6995058 2.7803092-4.15 4.065-1.4511768-1.2846398-2.8369221-2.6413485-4.152-4.065z" fill="#006241" data-original="#000000" style=""></path></g></g></g></svg>
