<svg width="63" height="57" viewBox="0 0 63 57" fill="none" xmlns="http://www.w3.org/2000/svg">
<path d="M62.2823 32.7722C61.7708 31.2041 60.4067 30.1833 58.9021 30.0098C60.5675 22.9238 54.5837 15.7757 45.5839 16.7016C41.6814 17.103 37.6473 18.9233 33.5937 22.1116C32.3604 23.081 30.638 23.0809 29.4052 22.1117C25.3339 18.9091 21.2838 17.0871 17.3676 16.6959C16.8688 16.646 16.4239 17.0101 16.3742 17.509C16.3243 18.0078 16.6884 18.4526 17.1872 18.5023C20.7544 18.8585 24.4874 20.553 28.283 23.5387C30.1769 25.0276 32.822 25.0275 34.7159 23.5386C38.4955 20.566 42.2144 18.8732 45.7696 18.5075C53.8153 17.6797 58.8947 24.1983 56.9473 30.2679C52.3867 31.8531 49.2844 35.7063 47.6366 39.3275C44.1547 37.9928 40.4077 37.5728 36.7414 38.1173C35.1342 38.3572 33.5436 38.7861 32.0138 39.3922C31.6822 39.5235 31.3168 39.5235 30.9852 39.3923C29.4551 38.7861 27.8643 38.3572 26.2566 38.1172C22.5908 37.5726 18.844 37.9928 15.362 39.3275C13.7143 35.7062 10.6118 31.8529 6.05112 30.2679C5.32642 28.0154 5.55237 25.6304 6.70321 23.5062C8.01054 21.093 10.3951 19.3459 13.2453 18.7128C13.7347 18.6041 14.0433 18.1193 13.9347 17.6299C13.826 17.1404 13.341 16.8317 12.8517 16.9405C9.4879 17.6876 6.66509 19.7655 5.107 22.6413C3.8735 24.9182 3.52603 27.5394 4.09885 30.0096C3.62697 30.0637 3.16344 30.2015 2.72738 30.4231C1.76522 30.912 1.05093 31.7462 0.716167 32.7723C0.0252281 34.8905 1.18635 37.1758 3.30443 37.8668C6.68445 38.9693 8.73682 43.5275 8.73682 45.2376C8.73682 46.4307 9.2634 47.5299 10.1206 48.2801L8.22899 52.6058C7.55705 54.1426 8.26058 55.9396 9.79894 56.6122C11.3588 57.2904 13.1359 56.5629 13.8015 55.0433L15.9424 50.1483C23.6182 51.7685 31.3871 52.2261 39.3447 51.3759C39.8432 51.3226 40.2041 50.8753 40.1509 50.3768C40.0976 49.8783 39.6502 49.5175 39.1518 49.5706C36.602 49.8431 34.0274 49.9812 31.4992 49.9812C25.0925 49.9812 18.599 49.1081 12.1993 47.3862C11.2295 47.1253 10.5521 46.2417 10.5521 45.2374C10.5521 42.7991 8.01405 37.4933 3.86733 36.1406C2.70088 35.7601 2.06149 34.5015 2.442 33.335C2.62632 32.7699 3.01966 32.3105 3.54963 32.0412C4.07949 31.772 4.68256 31.7252 5.24763 31.9096C10.071 33.4831 13.1102 37.9924 14.3461 41.6878C14.7257 42.8226 15.6797 43.6833 16.8361 43.9343C21.7172 44.9935 26.6506 45.5307 31.4992 45.5307C36.3477 45.5307 41.2811 44.9935 46.1622 43.9343C47.3186 43.6833 48.2728 42.8226 48.6524 41.6878C49.8883 37.9924 52.9275 33.4831 57.751 31.9096C58.92 31.5283 60.175 32.1654 60.5565 33.335C60.937 34.5015 60.2976 35.7601 59.1312 36.1406C54.9843 37.4933 52.4463 42.7991 52.4463 45.2374C52.4463 46.2417 51.769 47.1253 50.7991 47.3862C48.3272 48.0513 45.8086 48.5965 43.3133 49.0064C42.8186 49.0877 42.4835 49.5547 42.5647 50.0493C42.6459 50.5439 43.1126 50.8787 43.6076 50.7978C44.7546 50.6094 45.9063 50.3916 47.0563 50.1488L49.1971 55.0437C49.8632 56.5645 51.6404 57.2899 53.2012 56.6113C54.7379 55.9395 55.4414 54.1425 54.7694 52.6056L52.8777 48.2799C53.735 47.5296 54.2616 46.4305 54.2616 45.2374C54.2616 43.5272 56.3139 38.9691 59.6939 37.8665C61.8121 37.1757 62.9733 34.8904 62.2823 32.7722ZM14.1364 49.747L12.1384 54.3155C11.8702 54.9275 11.1556 55.2227 10.5244 54.9482C9.90387 54.677 9.62091 53.9541 9.89225 53.3333L11.7263 49.1393L11.7275 49.1397C12.5291 49.3552 13.3322 49.5574 14.1364 49.747ZM45.7773 42.1603C41.0225 43.1922 36.2187 43.7154 31.4993 43.7154C26.7799 43.7154 21.976 43.1922 17.2212 42.1603C16.6873 42.0445 16.2454 41.6429 16.068 41.1122C16.0572 41.08 16.0452 41.0474 16.0342 41.0152C19.1907 39.8164 22.6921 39.4232 25.9893 39.9129C27.4595 40.1323 28.9154 40.525 30.317 41.0803C31.0795 41.382 31.9194 41.382 32.682 41.0802C34.0833 40.525 35.5392 40.1323 37.0087 39.913C40.3063 39.4233 43.8079 39.8164 46.9644 41.0153C46.9534 41.0475 46.9414 41.0803 46.9306 41.1123C46.7531 41.6429 46.3112 42.0445 45.7773 42.1603ZM53.1061 53.3332C53.3779 53.9548 53.093 54.6777 52.4758 54.9475C51.8407 55.2238 51.1275 54.9258 50.8604 54.3161L48.8615 49.7459C49.6678 49.5559 50.4719 49.3546 51.2709 49.1397L51.2721 49.1393L53.1061 53.3332Z" fill="black"/>
<path d="M16.6435 29.7652H17.5799V30.7014C17.5799 31.2027 17.9863 31.6091 18.4876 31.6091C18.9889 31.6091 19.3953 31.2027 19.3953 30.7014V29.7652H20.3317C20.833 29.7652 21.2394 29.3588 21.2394 28.8575C21.2394 28.3562 20.833 27.9498 20.3317 27.9498H19.3953V27.0134C19.3953 26.5121 18.9889 26.1057 18.4876 26.1057C17.9863 26.1057 17.5799 26.5121 17.5799 27.0134V27.9498H16.6435C16.1422 27.9498 15.7358 28.3562 15.7358 28.8575C15.7358 29.3588 16.1421 29.7652 16.6435 29.7652Z" fill="black"/>
<path d="M44.5111 26.1057C44.0098 26.1057 43.6034 26.5121 43.6034 27.0134V27.9498H42.667C42.1657 27.9498 41.7593 28.3562 41.7593 28.8575C41.7593 29.3588 42.1657 29.7652 42.667 29.7652H43.6034V30.7014C43.6034 31.2027 44.0098 31.6091 44.5111 31.6091C45.0123 31.6091 45.4187 31.2027 45.4187 30.7014V29.7652H46.3551C46.8564 29.7652 47.2628 29.3588 47.2628 28.8575C47.2628 28.3562 46.8564 27.9498 46.3551 27.9498H45.4187V27.0134C45.4187 26.5121 45.0123 26.1057 44.5111 26.1057Z" fill="black"/>
<path d="M40.7071 7.28081C41.6331 8.19504 42.3622 8.64042 42.8944 8.96562C43.2033 9.15442 43.5497 9.2487 43.8961 9.2487C44.2424 9.2487 44.5888 9.1543 44.8977 8.96562C45.4299 8.64042 46.159 8.19504 47.085 7.28081C48.1172 6.26165 48.6195 5.36824 48.7136 4.38381C48.8044 3.43291 48.4733 2.50669 47.8052 1.84274C46.7329 0.777107 45.047 0.702555 43.8962 1.6445C42.7455 0.702555 41.0594 0.777107 39.9871 1.84274C39.319 2.50669 38.988 3.43279 39.0787 4.38381C39.1726 5.36824 39.6749 6.26177 40.7071 7.28081ZM41.2668 3.13046C41.715 2.68509 42.4978 2.68763 42.9228 3.22922C43.1591 3.53057 43.5139 3.70352 43.8961 3.70352C44.2783 3.70352 44.633 3.5307 44.8694 3.22946C45.2921 2.69089 46.0743 2.68218 46.5255 3.13046C46.8106 3.41378 46.9459 3.79768 46.9065 4.21123C46.8558 4.7418 46.5175 5.29017 45.8096 5.9891C45.0332 6.75556 44.4334 7.12203 43.9514 7.4166C43.9174 7.43742 43.8751 7.43754 43.841 7.4166C43.3591 7.12215 42.7591 6.75568 41.9828 5.98922C41.2749 5.2903 40.9366 4.74205 40.8859 4.21147C40.8463 3.79768 40.9816 3.41378 41.2668 3.13046Z" fill="black"/>
<path d="M27.3918 14.1332C28.6245 15.3502 29.597 15.9444 30.3072 16.3781C30.6748 16.6027 31.0869 16.7151 31.4991 16.7151C31.9112 16.7151 32.3234 16.6027 32.6909 16.3782C33.4012 15.9444 34.3741 15.35 35.6062 14.1333C36.9517 12.8049 37.6053 11.6519 37.7254 10.3948C37.8396 9.19933 37.4239 8.03554 36.585 7.20179C35.1964 5.82173 32.9836 5.77284 31.5476 7.09069C31.5313 7.1057 31.5152 7.12071 31.4992 7.13596C31.4832 7.12071 31.467 7.1057 31.4508 7.09069C30.0148 5.77272 27.8021 5.82161 26.4134 7.20179C25.5744 8.03554 25.1588 9.19945 25.273 10.3948C25.3928 11.6519 26.0464 12.8048 27.3918 14.1332ZM27.6929 8.48939C28.0481 8.13636 28.5228 7.95845 28.9963 7.95845C30.4586 7.95845 30.3039 9.17379 31.4991 9.17379C31.9178 9.17379 32.3066 8.98439 32.5656 8.65399C33.2656 7.76263 34.5609 7.74968 35.3052 8.48939C35.757 8.93852 35.9806 9.57003 35.9182 10.2221C35.8415 11.0254 35.3519 11.8332 34.3308 12.8413C33.2483 13.9102 32.4145 14.4196 31.7445 14.8287C31.5931 14.9213 31.405 14.9213 31.2536 14.8287C30.5838 14.4197 29.7502 13.9104 28.6673 12.8411C27.6462 11.8331 27.1567 11.0253 27.0799 10.222C27.0176 9.57003 27.241 8.93852 27.6929 8.48939Z" fill="black"/>
</svg>
