<svg width="50" height="30" viewBox="0 0 50 30" fill="none" xmlns="http://www.w3.org/2000/svg">
<rect x="1" y="1" width="48" height="28" rx="2" stroke="black" stroke-width="2" stroke-miterlimit="1"/>
<path d="M21.1586 14.8001C22.9946 14.8001 24.2366 13.3421 24.2366 11.5781C24.2366 9.7781 23.0126 8.3561 21.1946 8.3561C19.3586 8.3561 18.1166 9.7961 18.1166 11.5781C18.1166 13.3781 19.3406 14.8001 21.1586 14.8001ZM19.3766 21.1001H21.5186L30.7166 8.5001H28.5746L19.3766 21.1001ZM28.8986 21.2441C30.7346 21.2441 31.9766 19.7861 31.9766 18.0221C31.9766 16.2221 30.7526 14.8001 28.9346 14.8001C27.0986 14.8001 25.8566 16.2401 25.8566 18.0221C25.8566 19.8221 27.0806 21.2441 28.8986 21.2441ZM21.1946 13.1621C20.4746 13.1621 20.0066 12.4241 20.0066 11.5781C20.0066 10.7141 20.4026 9.9941 21.1586 9.9941C21.8786 9.9941 22.3466 10.7321 22.3466 11.5781C22.3466 12.4241 21.9506 13.1621 21.1946 13.1621ZM28.9346 19.6061C28.2146 19.6061 27.7466 18.8681 27.7466 18.0221C27.7466 17.1581 28.1426 16.4381 28.8986 16.4381C29.6186 16.4381 30.0866 17.1761 30.0866 18.0221C30.0866 18.8681 29.6906 19.6061 28.9346 19.6061Z" fill="black"/>
</svg>
