<svg width="60" height="60" viewBox="0 0 60 60" fill="none" xmlns="http://www.w3.org/2000/svg">
<path d="M54.9141 4.85129C54.8992 4.83635 54.8837 4.82221 54.8687 4.80727C54.8672 4.80578 54.8657 4.80429 54.8641 4.80279C47.2735 -2.7172 33.3807 -0.449827 23.4806 9.45039C22.0031 10.9278 20.6699 12.5207 19.5022 14.1952C13.5922 13.3191 8.39038 14.7908 4.81769 18.3636C4.80367 18.3776 4.79046 18.3922 4.77655 18.4063C4.7738 18.4092 4.77092 18.412 4.76828 18.415C-2.39122 25.6553 -0.120288 40.2373 9.69259 50.0501C19.6285 59.9861 34.2297 62.0742 41.3789 54.925C41.3877 54.9162 41.3961 54.907 41.4048 54.8982C41.4094 54.8934 41.4141 54.8888 41.4186 54.8839C44.9621 51.3125 46.4202 46.128 45.5475 40.2403C47.2219 39.0726 48.8148 37.7395 50.2923 36.262C60.2438 26.3103 62.4708 12.4079 54.9141 4.85129ZM25.918 11.8878C33.584 4.2219 43.673 1.79571 50.0987 5.47389L50.0208 5.50044C46.1946 6.8031 42.8074 9.05198 40.2257 12.0042C37.7709 14.8111 36.043 18.2579 35.2038 22.0024C31.5705 18.7133 27.4185 16.311 23.1653 15.022C24.0048 13.9291 24.9254 12.8803 25.918 11.8878ZM12.1299 47.6126C4.90353 40.3862 2.03941 29.8722 5.46937 23.2643C8.1178 31.0355 14.7651 36.8541 22.8189 38.4503C29.7557 39.8251 35.4364 44.8525 37.6442 51.5708L38.1716 53.1757C32.0825 58.0609 20.2437 55.7265 12.1299 47.6126ZM40.7674 50.0587C38.072 42.3798 31.4931 36.6553 23.4888 35.0689C16.6364 33.7107 10.9811 28.7591 8.72972 22.1461L8.03219 20.0972C14.3601 14.8932 25.8283 17.4376 34.0665 25.6758C38.054 29.6634 41.1571 34.8358 42.0803 40.3745C42.6978 44.0805 42.2315 47.4184 40.7674 50.0587ZM44.7204 36.5773C43.4745 32.4661 41.1879 28.4499 38.0663 24.9049C38.2175 24.357 38.3514 23.8027 38.4616 23.247C39.8353 16.3162 44.4532 11.0371 51.1316 8.76354L53.1824 8.06544C58.3696 14.3286 56.1591 25.5202 47.8546 33.8247C46.8621 34.817 45.8132 35.7377 44.7204 36.5773Z" fill="black"/>
</svg>
