<svg width="53" height="58" viewBox="0 0 53 58" fill="none" xmlns="http://www.w3.org/2000/svg">
<path d="M33.3146 43.3349C38.1753 35.2729 44.3189 23.9391 44.3189 18.1132C44.3189 8.28582 36.3276 0.294434 26.5002 0.294434C16.6727 0.294434 8.68136 8.28582 8.68136 18.1132C8.68136 23.9391 14.825 35.2729 19.6857 43.3349C13.9187 43.7704 0.795898 45.3357 0.795898 50.526C0.795898 55.6339 14.1188 57.9642 26.5119 57.9642C38.8933 57.9642 52.2279 55.6339 52.2279 50.526C52.2162 45.3357 39.0816 43.7704 33.3146 43.3349ZM11.1412 18.1132C11.1412 9.63929 18.038 2.74246 26.5002 2.74246C34.9741 2.74246 41.8709 9.63929 41.8709 18.1132C41.8709 25.5161 30.078 44.0882 26.5002 49.5492C22.9223 44.0882 11.1412 25.5161 11.1412 18.1132ZM26.5002 55.5044C11.4472 55.5044 3.24392 52.209 3.24392 50.5142C3.24392 49.2078 8.65782 46.395 21.1333 45.677C23.4754 49.455 25.2526 52.1266 25.488 52.4444C25.8058 52.8681 26.7355 53.3742 27.5241 52.4444C27.7712 52.1502 29.5366 49.455 31.8787 45.677C44.3543 46.395 49.7682 49.1961 49.7682 50.5142C49.7564 52.2208 41.5532 55.5044 26.5002 55.5044Z" fill="#231F20"/>
<path d="M34.2561 18.1129C34.2561 13.8289 30.7842 10.3569 26.5001 10.3569C22.2161 10.3569 18.7441 13.8289 18.7441 18.1129C18.7441 22.397 22.2161 25.8689 26.5001 25.8689C30.7842 25.8689 34.2561 22.397 34.2561 18.1129ZM21.1922 18.1129C21.1922 15.1824 23.5696 12.805 26.5001 12.805C29.4307 12.805 31.8081 15.1824 31.8081 18.1129C31.8081 21.0435 29.4307 23.4209 26.5001 23.4209C23.5696 23.4209 21.1922 21.0435 21.1922 18.1129Z" fill="#231F20"/>
</svg>
