<svg width="50" height="50" viewBox="0 0 50 50" fill="none" xmlns="http://www.w3.org/2000/svg">
<g clip-path="url(#clip0)">
<path d="M24.9992 36.9565C23.2013 36.9565 21.7383 38.4196 21.7383 40.2174C21.7383 42.0153 23.2013 43.4783 24.9992 43.4783C26.797 43.4783 28.2601 42.0153 28.2601 40.2174C28.2601 38.4196 26.7969 36.9565 24.9992 36.9565Z" fill="black"/>
<path d="M33.9709 31.4784C31.4513 29.4023 28.2643 28.261 24.999 28.261C21.7316 28.261 18.5469 29.4023 16.0294 31.4762C15.5664 31.8566 15.499 32.5414 15.8816 33.0045C16.0968 33.2653 16.4077 33.4023 16.7229 33.4023C16.9663 33.4023 17.2099 33.3219 17.4121 33.1545C21.6708 29.6523 28.3274 29.6523 32.5904 33.1545C33.0491 33.5371 33.7361 33.4719 34.1186 33.0066C34.5014 32.5436 34.4362 31.8588 33.9709 31.4784Z" fill="black"/>
<path d="M41.8908 23.9933C37.2538 19.7367 31.2537 17.3911 24.9993 17.3911C18.7449 17.3911 12.747 19.7368 8.1079 23.9955C7.66656 24.402 7.63619 25.0891 8.04269 25.5325C8.2579 25.7652 8.54924 25.8847 8.84273 25.8847C9.10574 25.8847 9.36885 25.7913 9.57755 25.5978C13.8146 21.7064 19.2906 19.5651 24.9994 19.5651C30.7081 19.5651 36.1843 21.7064 40.4213 25.5956C40.8627 26.0044 41.5517 25.9717 41.9561 25.5304C42.3625 25.0868 42.3342 24.3999 41.8908 23.9933Z" fill="black"/>
<path d="M49.6624 16.4237C42.9515 10.0389 34.1927 6.52148 24.9992 6.52148C15.8034 6.52148 7.04469 10.0258 0.338151 16.3889C-0.0966693 16.802 -0.113993 17.4911 0.29688 17.9259C0.707752 18.3608 1.39906 18.3781 1.83388 17.9672C8.13393 11.9867 16.3622 8.69538 24.9993 8.69538C33.632 8.69538 41.8581 11.9998 48.1625 17.9976C48.3734 18.1976 48.643 18.2976 48.9125 18.2976C49.1995 18.2976 49.4864 18.1846 49.6995 17.9606C50.1147 17.5259 50.0973 16.8368 49.6624 16.4237Z" fill="black"/>
</g>
<defs>
<clipPath id="clip0">
<rect width="50" height="50" fill="white"/>
</clipPath>
</defs>
</svg>
