<svg width="63" height="63" viewBox="0 0 63 63" fill="none" xmlns="http://www.w3.org/2000/svg">
<g clip-path="url(#clip0)">
<path d="M6.43549 34.9319C5.7639 34.9319 5.21875 35.477 5.21875 36.1486C5.21875 36.8202 5.7639 37.3654 6.43549 37.3654C7.10707 37.3654 7.65222 36.8202 7.65222 36.1486C7.65222 35.477 7.10707 34.9319 6.43549 34.9319Z" fill="black"/>
<path d="M56.2749 39.1513L44.8043 43.0947C44.8551 42.8124 44.8836 42.5244 44.8836 42.2321C44.8836 39.5486 42.7007 37.3651 40.0167 37.3651H32.1374C31.9283 37.3651 31.722 37.3114 31.5399 37.2088L25.1117 33.5932C23.8408 32.877 22.3964 32.4982 20.9348 32.4982H12.3093C11.8074 31.0823 10.4548 30.0652 8.86872 30.0652H1.5683C0.896242 30.0652 0.351562 30.6099 0.351563 31.2819L0.351563 53.1827C0.351563 53.8548 0.896242 54.3994 1.5683 54.3994H8.86872C10.4186 54.3994 11.7475 53.4256 12.2751 52.0577C13.6525 52.2288 15.2461 52.6361 16.2476 53.2369L22.6107 57.0549C25.0214 58.5016 27.7814 59.2664 30.5932 59.2664C32.8213 59.2664 34.9801 58.7987 37.01 57.8766L59.7198 47.8771C62.235 46.8566 63.4769 43.839 62.0392 41.1793C60.9816 39.2221 58.5049 38.3513 56.2749 39.1513ZM10.0855 50.7549C10.0826 51.4232 9.53745 51.966 8.86872 51.966H2.78504L2.78504 32.4987H8.86872C9.53935 32.4987 10.0855 33.0443 10.0855 33.7154V50.7549ZM58.7953 45.6266C58.7825 45.6313 58.7697 45.637 58.7568 45.6423C58.7568 45.6423 36.0134 55.6566 36.0091 55.6585C34.2957 56.4379 32.4734 56.8329 30.5932 56.8329C28.2224 56.8329 25.8954 56.1884 23.8631 54.9684L17.4995 51.1504C16.1373 50.3334 14.1867 49.8353 12.5189 49.6356V34.9321H20.9348C21.9786 34.9321 23.01 35.2021 23.9182 35.714L30.3465 39.3295C30.8912 39.6365 31.511 39.7991 32.1374 39.7991H40.0167C41.3584 39.7991 42.4502 40.8903 42.4502 42.2325C42.4502 43.5695 41.358 44.666 40.0167 44.666H27.6478C26.9758 44.666 26.4311 45.2107 26.4311 45.8828C26.4311 46.5543 26.9758 47.099 27.6478 47.099H40.0167C40.8147 47.099 41.6004 46.9008 42.2976 46.5292C42.2976 46.5292 57.0862 41.4455 57.0919 41.4436C58.1822 41.05 59.4151 41.4417 59.8985 42.3362C60.6233 43.6769 60.0239 45.1347 58.7953 45.6266Z" fill="black"/>
<path d="M35.7889 32.5543C36.018 32.7525 36.3017 32.8513 36.586 32.8513C36.8702 32.8513 37.1544 32.7525 37.383 32.5543C47.3104 23.9506 53.4511 19.5965 53.4511 12.8303C53.4511 7.47761 49.6616 3.04175 44.3379 3.04175C40.8417 3.04175 38.1644 5.05697 36.44 8.08122C34.7195 5.06362 32.0451 3.04175 28.5436 3.04175C24.468 3.04175 21.0607 5.68292 19.863 9.76992C19.6738 10.4149 20.0436 11.0907 20.6885 11.2799C21.3335 11.4691 22.0094 11.0993 22.1981 10.4543C23.0845 7.4296 25.575 5.47522 28.5436 5.47522C32.0146 5.47522 34.4495 8.55746 35.2675 11.4272C35.4134 11.9543 35.8935 12.3194 36.44 12.3194C36.9871 12.3194 37.4667 11.9543 37.6126 11.4272C37.6292 11.3678 39.3193 5.47522 44.3379 5.47522C48.1459 5.47522 51.0176 8.63684 51.0176 12.8303C51.0176 18.2429 45.7267 22.145 36.585 30.0272C31.0151 25.2439 26.5907 21.8769 24.0759 18.5832C23.6681 18.049 22.9048 17.9463 22.3706 18.3541C21.8364 18.7619 21.7342 19.5252 22.1415 20.0599C24.9761 23.7724 29.7613 27.3294 35.7889 32.5543Z" fill="black"/>
<path d="M20.915 13.761C20.2434 13.761 19.6982 14.3061 19.6982 14.9777C19.6982 15.6493 20.2434 16.1945 20.915 16.1945C21.5866 16.1945 22.1317 15.6493 22.1317 14.9777C22.1317 14.3061 21.5866 13.761 20.915 13.761Z" fill="black"/>
</g>
<defs>
<clipPath id="clip0">
<rect width="62.2968" height="62.2968" fill="white" transform="translate(0.351562)"/>
</clipPath>
</defs>
</svg>
