<svg width="50" height="50" viewBox="0 0 50 50" fill="none" xmlns="http://www.w3.org/2000/svg">
<path d="M25.6526 27.288C25.5601 27.268 25.4652 27.2644 25.3715 27.2784C24.4324 27.1691 23.724 26.3745 23.7224 25.4295C23.7224 24.9765 23.3552 24.6093 22.9023 24.6093C22.4493 24.6093 22.0821 24.9765 22.0821 25.4295C22.0845 27.0077 23.1401 28.3901 24.6619 28.8077V29.6279C24.6619 30.0808 25.0291 30.448 25.482 30.448C25.935 30.448 26.3022 30.0808 26.3022 29.6279V28.8574C28.0586 28.4898 29.2524 26.8539 29.0678 25.069C28.8827 23.2842 27.379 21.9278 25.5845 21.9274C24.5562 21.9274 23.7224 21.0937 23.7224 20.0653C23.7224 19.0369 24.5562 18.2031 25.5845 18.2031C26.6129 18.2031 27.4467 19.0369 27.4467 20.0653C27.4467 20.5182 27.8139 20.8854 28.2668 20.8854C28.7198 20.8854 29.087 20.5182 29.087 20.0653C29.0846 18.4082 27.9236 16.9789 26.3022 16.6369V15.8905C26.3022 15.4375 25.935 15.0703 25.482 15.0703C25.0291 15.0703 24.6619 15.4375 24.6619 15.8905V16.687C22.9695 17.1491 21.8803 18.7922 22.1134 20.531C22.3464 22.2698 23.8301 23.5677 25.5845 23.5673C26.5993 23.5673 27.4271 24.3798 27.4455 25.3942C27.4643 26.4086 26.6666 27.2511 25.6526 27.288Z" fill="black"/>
<path d="M13.6919 22.8101C13.6919 29.3785 19.0164 34.703 25.5848 34.703C32.1531 34.703 37.4777 29.3785 37.4777 22.8101C37.4777 16.2418 32.1531 10.9172 25.5848 10.9172C19.0196 10.9244 13.6995 16.245 13.6919 22.8101ZM25.5848 12.5575C31.2473 12.5575 35.8374 17.1476 35.8374 22.8101C35.8374 28.4727 31.2473 33.0627 25.5848 33.0627C19.9223 33.0627 15.3322 28.4727 15.3322 22.8101C15.3386 17.1504 19.9251 12.5639 25.5848 12.5575Z" fill="black"/>
<path d="M41.5207 36.725L35.0961 39.7604C34.2091 38.1105 32.5075 37.0605 30.635 37.0077L24.7041 36.8447C23.765 36.8179 22.8436 36.58 22.0086 36.1487L21.4051 35.8359C18.3152 34.2253 14.6321 34.2293 11.5454 35.8463L11.583 34.4792C11.5954 34.0262 11.2386 33.649 10.7857 33.6366L4.28221 33.4576C3.82929 33.4452 3.45246 33.802 3.44004 34.2549L3.04719 48.5265C3.03478 48.9795 3.39159 49.3567 3.84451 49.3691L10.348 49.5481H10.3704C10.8149 49.5481 11.1786 49.1945 11.1906 48.7504L11.2094 48.0676L12.8989 47.163C13.5621 46.8062 14.3374 46.7213 15.0618 46.9263L25.151 49.758C25.1687 49.7632 25.1863 49.7672 25.2043 49.7712C25.9335 49.9238 26.6768 50.0002 27.4217 49.9998C28.9995 50.0006 30.5589 49.6606 31.9929 49.0023C32.0282 48.9863 32.0622 48.9675 32.0946 48.9462L46.7231 39.4841C47.0875 39.2483 47.2052 38.7697 46.9918 38.3917C45.9057 36.4647 43.497 35.7306 41.5207 36.725ZM4.7095 47.7521L5.0571 35.1199L9.9207 35.2537L9.5731 47.8862L4.7095 47.7521ZM31.2541 47.5374C29.4724 48.3415 27.4825 48.5634 25.5675 48.1721L15.5055 45.3477C14.373 45.0277 13.1608 45.1603 12.1248 45.7173L11.2614 46.1798L11.4925 37.781C14.2285 35.9613 17.7373 35.7743 20.6511 37.2924L21.2546 37.6052C22.3094 38.1498 23.4727 38.4501 24.6593 38.4846L30.5905 38.6476C32.2564 38.6956 33.6712 39.8818 34.0092 41.5141L25.1747 41.2702C24.7217 41.2578 24.3449 41.615 24.3321 42.0675C24.3197 42.5204 24.6769 42.8977 25.1294 42.9101L34.879 43.1784H34.9019C35.346 43.178 35.7092 42.8244 35.7212 42.3807C35.7312 42.0243 35.7048 41.6674 35.6419 41.3166L42.2315 38.2031C42.2379 38.2003 42.2443 38.197 42.2507 38.1938C43.1854 37.7209 44.3155 37.8791 45.0844 38.5907L31.2541 47.5374Z" fill="black"/>
<path d="M26.4049 8.61152V0.820144C26.4049 0.367223 26.0377 0 25.5848 0C25.1319 0 24.7646 0.367223 24.7646 0.820144V8.61152C24.7646 9.06444 25.1319 9.43166 25.5848 9.43166C26.0377 9.43166 26.4049 9.06444 26.4049 8.61152Z" fill="black"/>
<path d="M32.5558 8.61163V4.92097C32.5558 4.46805 32.1886 4.10083 31.7357 4.10083C31.2828 4.10083 30.9155 4.46805 30.9155 4.92097V8.61163C30.9155 9.06455 31.2828 9.43177 31.7357 9.43177C32.1886 9.43177 32.5558 9.06455 32.5558 8.61163Z" fill="black"/>
<path d="M20.2536 8.61163V4.92097C20.2536 4.46805 19.8863 4.10083 19.4334 4.10083C18.9805 4.10083 18.6133 4.46805 18.6133 4.92097V8.61163C18.6133 9.06455 18.9805 9.43177 19.4334 9.43177C19.8863 9.43177 20.2536 9.06455 20.2536 8.61163Z" fill="black"/>
</svg>
