<svg xmlns="http://www.w3.org/2000/svg" version="1.1" xmlns:xlink="http://www.w3.org/1999/xlink" xmlns:svgjs="http://svgjs.com/svgjs" width="512" height="512" x="0" y="0" viewBox="0 0 512.011 512.011" style="enable-background:new 0 0 512 512" xml:space="preserve"><g>
<g xmlns="http://www.w3.org/2000/svg">
	<g>
		<path d="M351.016,351.778c-4.768-46.368-27.232-91.712-63.232-127.712c-74.976-74.912-186.112-85.728-247.744-24    c-61.664,61.664-50.912,172.8,24.032,247.744c36,36,81.344,58.464,127.712,63.264c6.176,0.608,12.288,0.928,18.272,0.928    c39.872,0,75.488-13.984,101.728-40.224C341.992,441.602,355.944,398.978,351.016,351.778z M241.352,389.826    c-24.576-18.752-51.168-26.176-80.096-34.08C88.488,335.778,52.36,275.074,43.88,203.906    c20.512,24.736,35.648,52.96,60.832,73.664c26.816,22.048,56.32,30.08,88.768,39.488c71.2,20.672,106.4,80.864,114.528,150.912    C285.768,441.25,269.448,411.298,241.352,389.826z" fill="#006241" data-original="#000000" style=""></path>
	</g>
</g>
<g xmlns="http://www.w3.org/2000/svg">
	<g>
		<path d="M471.976,40.066c-61.632-61.696-172.768-50.912-247.744,24c-19.968,19.968-35.264,42.944-46.176,67.232    c35.84,6.176,70.56,21.152,101.344,43.648c11.712-7.36,24.48-13.664,39.168-17.92c32.416-9.408,61.952-17.408,88.768-39.488    c25.152-20.704,40.288-48.96,60.832-73.664c-8.448,71.168-44.608,131.872-117.376,151.84c-12.288,3.36-24.064,6.816-35.552,10.912    c34.688,36.544,57.536,81.056,65.504,127.36c24.288-10.944,47.296-26.208,67.264-46.176    C522.856,212.866,533.64,101.73,471.976,40.066z" fill="#006241" data-original="#000000" style=""></path>
	</g>
</g>
<g xmlns="http://www.w3.org/2000/svg">
</g>
<g xmlns="http://www.w3.org/2000/svg">
</g>
<g xmlns="http://www.w3.org/2000/svg">
</g>
<g xmlns="http://www.w3.org/2000/svg">
</g>
<g xmlns="http://www.w3.org/2000/svg">
</g>
<g xmlns="http://www.w3.org/2000/svg">
</g>
<g xmlns="http://www.w3.org/2000/svg">
</g>
<g xmlns="http://www.w3.org/2000/svg">
</g>
<g xmlns="http://www.w3.org/2000/svg">
</g>
<g xmlns="http://www.w3.org/2000/svg">
</g>
<g xmlns="http://www.w3.org/2000/svg">
</g>
<g xmlns="http://www.w3.org/2000/svg">
</g>
<g xmlns="http://www.w3.org/2000/svg">
</g>
<g xmlns="http://www.w3.org/2000/svg">
</g>
<g xmlns="http://www.w3.org/2000/svg">
</g>
</g></svg>